<!DOCTYPE svg PUBLIC "-//W3C//DTD SVG 20010904//EN" "http://www.w3.org/TR/2001/REC-SVG-20010904/DTD/svg10.dtd">
<svg version="1.0" xmlns="http://www.w3.org/2000/svg" width="376px" height="193px" viewBox="0 0 3760 1930" preserveAspectRatio="xMidYMid meet">
<g id="layer101" fill="#db711b" stroke="none">
<path d="M3399 1584 c-25 -30 -23 -157 4 -271 14 -57 21 -103 17 -103 -4 0 -19 15 -33 33 -56 73 -168 175 -242 222 -91 58 -212 105 -268 105 -169 -1 -413 -333 -473 -646 -50 -265 39 -442 250 -495 25 -6 48 -15 51 -19 3 -4 -10 -30 -29 -56 -47 -69 -64 -104 -66 -139 -3 -48 -1 -55 19 -55 24 0 148 64 178 92 30 28 46 19 61 -36 6 -26 19 -49 27 -52 19 -8 97 47 142 101 42 51 55 55 71 23 6 -13 38 -80 72 -150 34 -71 65 -128 69 -128 4 0 18 11 30 24 l23 25 -33 57 c-84 144 -114 244 -61 206 52 -38 120 -62 175 -62 54 0 57 1 53 23 -3 12 -7 41 -10 64 l-6 43 89 0 c49 0 101 4 116 10 l26 10 -21 40 c-18 35 -54 68 -142 131 l-23 17 20 23 c67 78 89 177 75 338 -12 131 -39 232 -103 381 -58 138 -58 136 -48 200 5 30 8 56 6 58 -1 1 -8 -5 -16 -14z"/>
</g>
<g id="layer102" fill="#5f7c9c" stroke="none">
<path d="M2791 1545 c-154 -72 -338 -367 -387 -621 -50 -265 39 -442 250 -495 25 -6 48 -15 51 -19 3 -4 -10 -30 -29 -56 -47 -69 -64 -104 -66 -139 -3 -48 -1 -55 19 -55 24 0 148 64 178 92 30 28 46 19 61 -36 6 -26 19 -49 27 -52 23 -9 115 60 157 120 l21 28 -34 -6 c-41 -7 -26 1 76 40 85 33 137 67 193 128 33 35 42 53 42 81 0 85 -113 94 -310 23 -69 -25 -145 -48 -170 -52 -36 -5 -26 1 50 29 113 42 280 121 367 173 56 33 63 40 63 70 0 18 -6 47 -14 65 -30 70 -93 101 -240 117 -174 19 -224 37 -251 91 -26 49 -13 53 40 11 l50 -40 65 10 c74 10 264 -4 372 -28 37 -9 72 -13 78 -9 5 3 10 25 10 48 -1 75 -16 125 -46 155 -16 15 -50 51 -75 80 -104 116 -233 204 -367 250 -80 28 -115 28 -181 -3z m470 -985 c30 -17 23 -55 -17 -94 -45 -44 -98 -63 -120 -45 -32 26 9 102 71 130 48 22 42 21 66 9z"/>
<path d="M3557 848 c-8 -56 -50 -181 -74 -217 -14 -23 -14 -24 0 -13 41 34 100 217 85 263 -3 8 -8 -7 -11 -33z"/>
<path d="M3425 542 c-73 -99 -184 -184 -282 -213 -45 -13 -49 -18 -34 -47 6 -9 37 -74 71 -144 34 -71 65 -128 69 -128 4 0 18 11 30 24 l23 25 -33 57 c-84 144 -114 244 -61 206 52 -38 120 -62 175 -62 54 0 57 1 53 23 -3 12 -7 41 -10 65 l-6 42 89 0 c49 0 101 4 116 10 l26 10 -20 37 c-22 43 -44 65 -116 115 l-51 35 -39 -55z"/>
</g>
<g id="layer103" fill="#897a8b" stroke="none">
<path d="M89 1921 c-51 -16 -68 -32 -79 -71 -12 -46 -10 -51 30 -80 l29 -21 16 38 c24 57 53 83 92 83 33 0 36 -3 67 -72 18 -40 41 -98 51 -128 24 -69 30 -77 75 -99 36 -17 37 -17 51 3 8 12 16 40 19 64 6 51 21 56 34 12 9 -31 75 -90 100 -90 22 0 5 68 -24 100 l-28 32 -8 -24 c-6 -20 -9 -17 -20 27 -8 28 -14 62 -14 76 0 15 -12 38 -27 54 -32 31 -72 60 -77 54 -2 -2 -10 -51 -18 -109 l-14 -105 -42 82 c-46 90 -90 146 -133 169 -31 15 -41 16 -80 5z"/>
<path d="M2061 1917 c-49 -17 -61 -41 -34 -67 18 -16 27 -18 48 -10 15 6 28 10 31 10 2 0 4 -21 4 -47 l0 -47 -33 32 c-49 48 -57 43 -57 -36 0 -64 2 -70 25 -80 44 -20 55 -15 56 26 1 36 1 37 11 10 5 -16 14 -28 19 -28 5 0 9 -7 9 -16 0 -13 6 -15 27 -9 16 4 29 7 30 8 1 1 -3 40 -8 87 -9 83 -21 112 -62 158 -23 25 -21 25 -66 9z"/>
<path d="M1795 1799 c3 -24 2 -55 -4 -69 -9 -22 -10 -19 -10 23 -1 55 -17 77 -55 77 -25 0 -26 -2 -26 -66 0 -76 14 -97 65 -98 18 -1 40 -7 48 -14 12 -10 21 -11 36 -2 18 9 21 20 21 69 0 59 -4 65 -63 111 -18 13 -18 12 -12 -31z"/>
<path d="M960 1823 c-29 -10 -40 -37 -40 -96 0 -48 3 -58 14 -54 10 4 13 1 9 -9 -6 -17 6 -18 43 -4 21 8 31 7 45 -6 23 -21 41 -9 33 22 -4 14 -2 24 5 24 6 0 11 -4 11 -9 0 -5 11 -12 24 -15 13 -3 31 -8 39 -12 11 -4 16 9 21 66 8 79 -2 100 -48 100 -25 0 -26 -3 -26 -54 0 -47 -3 -54 -22 -59 -12 -4 -25 -2 -28 4 -4 5 -14 7 -23 3 -12 -4 -17 -1 -17 10 0 9 7 19 15 22 20 8 19 26 -4 52 -19 23 -25 24 -51 15z"/>
<path d="M1222 1814 c-18 -12 -22 -25 -22 -65 0 -43 4 -53 33 -79 39 -36 79 -33 115 7 14 15 27 22 30 16 5 -7 65 -33 77 -33 1 0 6 32 9 70 8 79 -2 100 -48 100 -25 0 -26 -3 -26 -55 0 -41 -4 -55 -14 -55 -8 0 -17 -6 -19 -12 -4 -9 -8 -10 -14 -2 -13 18 -61 26 -66 11 -4 -8 -6 -7 -6 4 -1 22 19 39 46 39 29 0 29 11 1 37 -32 29 -70 36 -96 17z"/>
<path d="M1515 1805 c-28 -27 -30 -37 -14 -68 24 -45 82 -87 121 -87 28 0 36 4 32 14 -3 7 2 16 10 19 25 10 21 79 -6 104 -55 49 -106 56 -143 18z m78 -82 c-15 -12 -18 -12 -21 2 -2 9 5 26 15 37 l18 20 3 -23 c3 -14 -3 -28 -15 -36z"/>
<path d="M2348 1803 c-4 -62 4 -89 34 -120 18 -18 40 -33 50 -33 13 0 18 -8 18 -26 0 -30 24 -53 55 -54 19 0 20 6 18 116 -3 123 -10 144 -48 144 -18 0 -25 -7 -30 -30 l-7 -30 -28 30 c-36 38 -59 39 -62 3z m84 -95 c-9 -9 -12 -4 -11 23 0 32 1 33 11 11 8 -17 8 -26 0 -34z"/>
<path d="M2570 1775 c0 -42 -3 -55 -15 -55 -33 0 -5 -31 44 -48 19 -7 35 -12 36 -12 1 0 6 32 9 70 8 79 -2 100 -48 100 -25 0 -26 -3 -26 -55z"/>
<path d="M2710 1822 c-23 -8 -30 -23 -30 -71 0 -37 5 -48 33 -72 27 -24 38 -28 67 -23 47 9 50 11 50 43 0 27 -20 53 -50 64 -8 3 -2 6 15 6 l30 1 -25 24 c-27 25 -65 37 -90 28z"/>
<path d="M3010 1822 c-23 -8 -30 -23 -30 -71 0 -37 5 -48 33 -72 27 -24 38 -28 67 -23 47 9 50 11 50 43 0 27 -20 53 -50 64 -8 3 -2 6 15 6 l30 1 -25 24 c-27 25 -65 37 -90 28z"/>
<path d="M3300 1775 c0 -42 -3 -55 -15 -55 -33 0 -5 -31 44 -48 19 -7 35 -12 36 -12 1 0 6 32 9 70 8 79 -2 100 -48 100 -25 0 -26 -3 -26 -55z"/>
<path d="M3576 1796 c-8 -42 -1 -63 37 -103 24 -26 39 -33 68 -33 53 0 69 20 69 85 0 44 -4 57 -22 69 -34 24 -48 20 -48 -16 l0 -32 -33 32 c-43 42 -63 41 -71 -2z m93 -45 c8 -14 7 -22 -4 -31 -13 -11 -15 -8 -15 19 0 36 5 39 19 12z"/>
<path d="M1083 1624 c-3 -10 4 -26 20 -42 22 -21 28 -23 41 -12 21 17 20 33 -2 53 -23 21 -51 22 -59 1z"/>
<path d="M1383 1624 c-3 -10 4 -26 20 -42 22 -21 28 -23 41 -12 21 17 20 33 -2 53 -23 21 -51 22 -59 1z"/>
<path d="M1560 1631 c0 -15 53 -71 67 -71 21 0 15 14 -20 48 -34 33 -47 39 -47 23z"/>
<path d="M2563 1624 c-3 -10 4 -26 20 -42 22 -21 28 -23 41 -12 21 17 20 33 -2 53 -23 21 -51 22 -59 1z"/>
<path d="M3031 1618 c15 -28 39 -47 58 -48 9 0 2 14 -19 35 -39 40 -56 46 -39 13z"/>
<path d="M3293 1624 c-3 -10 4 -26 20 -42 22 -21 28 -23 41 -12 21 17 20 33 -2 53 -23 21 -51 22 -59 1z"/>
<path d="M3425 1202 c4 -8 11 -26 15 -40 7 -22 8 -23 9 -6 1 11 -6 29 -15 40 -8 10 -12 13 -9 6z"/>
<path d="M2820 1112 c0 -20 26 -67 47 -83 17 -13 17 -13 1 6 -9 12 -24 36 -32 55 -8 19 -15 29 -16 22z"/>
<path d="M3452 1073 c-2 -45 -5 -52 -24 -56 l-23 -4 23 -2 c28 -1 34 14 29 70 l-4 44 -1 -52z"/>
<path d="M2860 1108 c0 -4 17 -20 38 -36 34 -26 41 -28 87 -22 44 6 46 7 14 9 -23 0 -39 7 -43 16 -3 9 -18 15 -39 15 -18 0 -38 5 -45 12 -7 7 -12 9 -12 6z"/>
<path d="M3131 1056 c2 -2 45 -6 94 -9 63 -4 77 -3 45 3 -45 9 -147 13 -139 6z"/>
<path d="M2925 1000 c11 -5 29 -8 40 -8 16 0 15 2 -5 8 -34 11 -60 11 -35 0z"/>
<path d="M3255 938 c11 -6 31 -20 45 -32 14 -11 11 -6 -7 12 -18 17 -38 32 -45 32 -7 0 -4 -6 7 -12z"/>
<path d="M3342 810 c0 -19 2 -27 5 -17 2 9 2 25 0 35 -3 9 -5 1 -5 -18z"/>
<path d="M3309 749 l-24 -20 30 17 c39 24 40 24 28 24 -6 0 -21 -9 -34 -21z"/>
<path d="M3521 719 c-6 -18 -9 -34 -7 -36 2 -2 9 10 15 28 6 18 9 34 7 36 -2 2 -9 -10 -15 -28z"/>
<path d="M3248 714 c-38 -20 -36 -28 2 -9 17 9 30 18 30 20 0 7 -1 6 -32 -11z"/>
<path d="M3070 625 c-14 -8 -20 -14 -15 -14 6 0 21 6 35 14 14 8 21 14 15 14 -5 0 -21 -6 -35 -14z"/>
<path d="M3327 600 c6 -8 13 -31 16 -50 l4 -35 1 36 c1 24 -4 41 -15 50 -16 12 -16 12 -6 -1z"/>
<path d="M2975 585 c-25 -12 -26 -14 -5 -9 28 7 60 23 45 23 -5 0 -23 -6 -40 -14z"/>
<path d="M3415 530 c-20 -27 -60 -71 -88 -96 -29 -26 -38 -38 -22 -26 46 32 170 172 152 172 -3 0 -22 -22 -42 -50z"/>
<path d="M2882 553 c-24 -8 -41 -17 -39 -19 4 -5 97 26 97 32 0 6 -11 4 -58 -13z"/>
<path d="M3263 559 c20 -12 23 -49 5 -69 -11 -12 -10 -12 5 -1 29 22 16 82 -17 81 -6 0 -3 -5 7 -11z"/>
<path d="M3270 448 c-36 -34 -51 -52 -35 -41 29 21 114 103 105 103 -3 -1 -34 -29 -70 -62z"/>
<path d="M3220 445 c-19 -14 -41 -25 -49 -26 -11 0 -12 -2 -3 -6 11 -4 92 43 92 53 0 7 -6 4 -40 -21z"/>
<path d="M3241 374 c-13 -9 -44 -25 -70 -36 -30 -12 -36 -17 -16 -13 29 6 115 51 115 60 0 8 -4 6 -29 -11z"/>
<path d="M3065 335 c-39 -17 -21 -18 25 0 19 7 28 14 20 14 -8 0 -28 -6 -45 -14z"/>
</g>
<g id="layer104" fill="#b17566" stroke="none">
<path d="M2901 1069 c38 -31 54 -32 54 -3 0 15 -9 20 -44 25 l-44 6 34 -28z"/>
<path d="M3143 1053 c9 -2 25 -2 35 0 9 3 1 5 -18 5 -19 0 -27 -2 -17 -5z"/>
<path d="M3218 623 c12 -2 30 -2 40 0 9 3 -1 5 -23 4 -22 0 -30 -2 -17 -4z"/>
<path d="M3359 463 l-34 -38 38 34 c20 19 37 36 37 38 0 8 -8 0 -41 -34z"/>
</g>
<g id="layer105" fill="#8a2be1" stroke="none">
<path d="M89 1921 c-51 -16 -68 -32 -79 -71 -12 -46 -10 -51 30 -80 l29 -21 16 38 c24 57 53 83 92 83 33 0 36 -3 65 -67 17 -38 41 -97 53 -133 27 -77 63 -112 91 -89 12 9 15 10 10 2 -4 -7 -4 -18 -1 -23 12 -19 44 35 47 78 4 51 19 56 32 12 9 -31 75 -90 100 -90 22 0 5 67 -24 99 -28 31 -29 31 -36 8 -6 -19 -9 -14 -20 28 -8 28 -14 62 -14 76 0 15 -12 38 -27 54 -32 31 -72 60 -77 54 -2 -2 -10 -51 -18 -109 l-14 -105 -19 38 c-10 20 -23 37 -27 37 -5 0 -6 5 -3 10 3 6 1 10 -5 10 -6 0 -8 5 -5 10 3 6 1 10 -5 10 -6 0 -8 5 -5 10 3 6 1 10 -5 10 -6 0 -9 4 -6 9 8 12 -61 89 -95 106 -31 16 -41 17 -80 6z"/>
<path d="M2061 1917 c-49 -17 -61 -41 -34 -67 18 -16 27 -18 48 -10 15 6 28 10 31 10 2 0 4 -21 4 -47 l0 -47 -33 32 c-49 48 -57 43 -57 -36 0 -64 2 -70 25 -80 44 -20 55 -15 56 26 1 36 1 37 11 10 5 -16 14 -28 19 -28 5 0 9 -7 9 -16 0 -13 6 -15 27 -9 16 4 29 7 30 8 3 4 -16 159 -22 178 -4 10 -11 19 -16 19 -5 0 -9 4 -9 10 0 11 -41 60 -49 59 -3 0 -21 -5 -40 -12z"/>
<path d="M1795 1799 c3 -24 2 -55 -4 -69 -9 -22 -10 -19 -10 23 -1 55 -17 77 -55 77 -25 0 -26 -1 -26 -70 0 -57 3 -70 16 -70 9 0 12 -5 8 -12 -5 -8 0 -9 14 -6 13 4 20 2 16 -4 -4 -6 8 -7 31 -2 26 5 36 3 31 -4 -10 -16 11 -24 34 -12 16 9 20 21 20 69 0 59 -4 65 -63 111 -18 13 -18 12 -12 -31z"/>
<path d="M690 1820 c0 -6 -16 -8 -42 -4 -51 9 -68 -10 -68 -71 0 -48 22 -80 62 -90 26 -7 26 -6 21 34 -6 45 2 91 17 91 6 0 10 -23 10 -51 0 -57 15 -79 54 -79 26 0 26 1 26 71 0 61 -3 74 -22 90 -23 20 -58 26 -58 9z"/>
<path d="M811 1816 c-6 -7 -12 -45 -13 -83 -2 -54 2 -74 14 -87 18 -18 58 -22 58 -6 0 6 9 10 20 10 13 0 20 7 20 18 0 10 -9 24 -20 32 -24 17 -25 37 -5 60 14 15 13 20 -6 43 -22 29 -50 35 -68 13z"/>
<path d="M960 1823 c-29 -10 -40 -37 -40 -96 0 -48 3 -58 14 -54 11 4 13 1 9 -10 -5 -13 -1 -15 23 -8 50 13 73 14 71 2 -1 -7 5 -12 13 -12 10 0 14 8 12 28 -2 19 2 27 13 27 9 0 14 -4 11 -9 -3 -5 5 -12 18 -15 13 -3 31 -8 39 -12 11 -4 16 9 21 66 8 79 -2 100 -48 100 -25 0 -26 -3 -26 -54 0 -47 -3 -54 -22 -59 -12 -4 -25 -2 -28 4 -4 5 -14 7 -23 3 -12 -4 -17 -1 -17 10 0 9 7 19 15 22 20 8 19 26 -4 52 -19 23 -25 24 -51 15z m187 -125 c-2 -13 -4 -5 -4 17 -1 22 1 32 4 23 2 -10 2 -28 0 -40z"/>
<path d="M1222 1814 c-18 -12 -22 -25 -22 -65 0 -43 4 -53 33 -79 38 -35 79 -33 114 6 21 23 51 34 39 15 -3 -5 5 -12 18 -15 13 -3 31 -8 39 -12 11 -4 16 9 21 66 8 79 -2 100 -48 100 -25 0 -26 -3 -26 -55 0 -41 -4 -55 -14 -55 -8 0 -17 -6 -19 -12 -4 -9 -8 -10 -14 -2 -13 18 -61 26 -66 11 -4 -8 -6 -7 -6 4 -1 22 19 39 46 39 29 0 29 11 1 37 -32 29 -70 36 -96 17z m225 -116 c-2 -13 -4 -5 -4 17 -1 22 1 32 4 23 2 -10 2 -28 0 -40z"/>
<path d="M1515 1805 c-37 -37 -31 -61 33 -120 28 -26 46 -35 74 -35 28 0 36 4 32 14 -3 7 2 16 10 19 25 10 21 79 -6 104 -55 49 -106 56 -143 18z m78 -82 c-15 -12 -18 -12 -21 2 -2 9 5 26 15 37 l18 20 3 -23 c3 -14 -3 -28 -15 -36z"/>
<path d="M2348 1803 c-4 -57 3 -88 24 -110 12 -13 28 -23 35 -23 8 0 11 -4 8 -10 -3 -5 3 -10 14 -10 16 0 21 -6 21 -26 0 -30 24 -53 55 -54 19 0 20 6 18 117 -2 73 -7 117 -13 116 -5 -2 -9 3 -7 10 1 6 -10 13 -25 15 -22 3 -27 -2 -33 -26 -3 -16 -12 -29 -20 -29 -8 0 -12 3 -10 7 6 10 -34 50 -50 50 -9 0 -16 -11 -17 -27z m84 -95 c-9 -9 -12 -4 -11 23 0 32 1 33 11 11 8 -17 8 -26 0 -34z"/>
<path d="M2570 1775 c0 -42 -3 -55 -15 -55 -8 0 -15 -4 -15 -10 0 -5 7 -10 16 -10 8 0 13 -4 10 -9 -3 -5 5 -12 18 -15 13 -3 31 -8 39 -12 11 -4 16 9 21 66 8 79 -2 100 -48 100 -25 0 -26 -3 -26 -55z m57 -77 c-2 -13 -4 -5 -4 17 -1 22 1 32 4 23 2 -10 2 -28 0 -40z"/>
<path d="M2710 1822 c-23 -8 -30 -23 -30 -71 0 -48 28 -84 58 -74 14 4 15 3 2 -6 -22 -15 6 -22 50 -13 29 6 36 13 38 36 4 32 -19 63 -52 69 -13 3 -8 5 14 6 l35 1 -25 24 c-27 25 -65 37 -90 28z"/>
<path d="M2871 1816 c-6 -7 -12 -45 -13 -83 -2 -54 2 -74 14 -87 18 -18 58 -22 58 -6 0 6 9 10 20 10 13 0 20 7 20 18 0 10 -9 24 -20 32 -24 17 -25 37 -5 60 14 15 13 20 -6 43 -22 29 -50 35 -68 13z"/>
<path d="M3010 1822 c-23 -8 -30 -23 -30 -71 0 -48 28 -84 58 -74 14 4 15 3 2 -6 -22 -15 6 -22 50 -13 29 6 36 13 38 36 4 32 -19 63 -52 69 -13 3 -8 5 14 6 l35 1 -25 24 c-27 25 -65 37 -90 28z"/>
<path d="M3171 1816 c-6 -7 -12 -45 -13 -83 -2 -54 2 -74 14 -87 18 -18 58 -22 58 -6 0 6 9 10 20 10 13 0 20 7 20 18 0 10 -9 24 -20 32 -24 17 -25 37 -5 60 14 15 13 20 -6 43 -22 29 -50 35 -68 13z"/>
<path d="M3300 1775 c0 -42 -3 -55 -15 -55 -8 0 -15 -4 -15 -10 0 -5 7 -10 16 -10 8 0 13 -4 10 -9 -3 -5 5 -12 18 -15 13 -3 31 -8 39 -12 11 -4 16 9 21 66 8 79 -2 100 -48 100 -25 0 -26 -3 -26 -55z m57 -77 c-2 -13 -4 -5 -4 17 -1 22 1 32 4 23 2 -10 2 -28 0 -40z"/>
<path d="M3432 1814 c-18 -12 -22 -25 -22 -65 0 -43 4 -53 33 -79 26 -24 38 -29 62 -24 17 3 39 14 49 24 16 16 17 20 5 33 -21 20 -66 30 -72 14 -4 -8 -6 -7 -6 4 -1 22 19 39 46 39 29 0 29 11 1 37 -32 29 -70 36 -96 17z"/>
<path d="M3576 1796 c-8 -43 4 -74 43 -108 21 -19 42 -28 65 -28 51 0 66 21 65 88 -2 55 -2 56 -9 17 l-7 -40 -2 46 c-1 33 -6 49 -17 53 -28 11 -34 6 -34 -26 l0 -32 -33 32 c-43 42 -63 41 -71 -2z m93 -45 c8 -14 7 -22 -4 -31 -13 -11 -15 -8 -15 19 0 36 5 39 19 12z"/>
<path d="M1084 1625 c-4 -9 4 -26 20 -41 21 -22 28 -24 41 -14 20 17 19 33 -3 53 -23 21 -51 22 -58 2z"/>
<path d="M1384 1625 c-4 -9 4 -26 20 -41 21 -22 28 -24 41 -14 20 17 19 33 -3 53 -23 21 -51 22 -58 2z"/>
<path d="M2564 1625 c-4 -9 4 -26 20 -41 21 -22 28 -24 41 -14 20 17 19 33 -3 53 -23 21 -51 22 -58 2z"/>
<path d="M3294 1625 c-4 -9 4 -26 20 -41 21 -22 28 -24 41 -14 20 17 19 33 -3 53 -23 21 -51 22 -58 2z"/>
<path d="M1605 1570 c3 -5 13 -10 21 -10 8 0 14 5 14 10 0 6 -9 10 -21 10 -11 0 -17 -4 -14 -10z"/>
<path d="M1161 1280 c-105 -25 -170 -146 -178 -336 -12 -241 68 -402 207 -420 92 -11 180 66 221 194 28 89 30 260 5 347 -37 125 -90 194 -161 210 -55 13 -60 13 -94 5z m79 -66 c6 -14 10 -152 10 -318 0 -315 -2 -331 -51 -324 l-24 3 -3 319 c-2 227 1 323 9 332 19 23 49 16 59 -12z"/>
<path d="M176 1264 c-10 -26 -7 -33 19 -56 l25 -22 0 -293 c0 -282 -1 -293 -20 -305 -11 -7 -20 -23 -20 -36 l0 -22 163 2 162 3 14 73 c11 52 12 75 4 83 -17 17 -49 -5 -58 -38 -11 -46 -33 -73 -60 -73 l-25 0 0 141 0 140 32 -3 c27 -2 33 -8 40 -36 7 -27 13 -33 31 -30 20 3 22 9 25 87 2 61 -1 87 -10 92 -24 16 -37 9 -46 -23 -7 -28 -13 -34 -40 -36 l-32 -3 0 161 0 161 33 -3 c29 -3 34 -8 52 -61 19 -56 46 -80 66 -60 12 12 -10 155 -25 165 -6 4 -81 8 -167 8 -134 0 -158 -2 -163 -16z"/>
<path d="M575 1261 c-7 -23 2 -48 21 -55 22 -8 21 -601 -1 -610 -9 -3 -15 -18 -15 -36 l0 -30 120 0 120 0 0 30 c0 19 -7 33 -20 40 -19 10 -20 21 -20 320 l0 310 25 0 c27 0 48 -27 60 -75 3 -16 11 -36 17 -42 11 -14 44 -17 51 -5 7 11 -14 146 -25 160 -8 9 -54 12 -169 12 -145 0 -158 -2 -164 -19z"/>
<path d="M1480 1254 c0 -14 9 -37 20 -51 19 -24 20 -41 20 -295 0 -258 -1 -271 -22 -307 -37 -64 -26 -72 99 -69 108 3 108 3 111 29 2 14 -4 31 -12 39 -13 10 -16 36 -16 131 l0 119 40 0 40 0 0 -125 c0 -77 -4 -125 -10 -125 -5 0 -10 -16 -10 -35 l0 -36 113 3 c104 3 112 4 115 24 2 11 -6 28 -18 39 -19 17 -20 29 -20 305 0 273 1 288 20 310 46 53 20 70 -107 70 l-103 0 0 -34 c0 -19 5 -38 10 -41 6 -4 10 -67 10 -156 l0 -149 -40 0 -40 0 0 145 c0 116 3 151 16 170 9 14 13 33 9 45 -6 19 -14 20 -116 20 l-109 0 0 -26z"/>
<path d="M1996 1264 c-10 -26 -7 -33 19 -56 l25 -22 0 -293 c0 -282 -1 -293 -20 -305 -11 -7 -20 -23 -20 -36 l0 -22 163 2 162 3 14 73 c11 52 12 75 4 83 -17 17 -49 -5 -58 -38 -11 -46 -33 -73 -60 -73 l-25 0 0 141 0 140 32 -3 c27 -2 33 -8 40 -36 7 -27 13 -33 31 -30 20 3 22 9 25 87 2 61 -1 87 -10 92 -24 16 -37 9 -46 -23 -7 -28 -13 -34 -40 -36 l-32 -3 0 161 0 161 33 -3 c29 -3 34 -8 52 -61 19 -56 46 -80 66 -60 12 12 -10 155 -25 165 -6 4 -81 8 -167 8 -134 0 -158 -2 -163 -16z"/>
</g>
<g id="layer106" fill="#8b8b8c" stroke="none">
<path d="M89 1921 c-52 -16 -68 -32 -80 -73 -10 -40 -10 -44 17 -66 l28 -25 14 42 c26 77 91 112 134 71 19 -18 59 -104 93 -200 17 -46 31 -70 51 -82 26 -16 29 -16 57 4 24 17 28 26 23 49 -7 36 3 89 17 89 6 0 7 -3 4 -6 -4 -4 0 -19 8 -33 8 -14 19 -38 25 -53 9 -25 62 -68 84 -68 16 0 -2 78 -22 98 -21 21 -21 21 -27 1 -4 -10 -10 -19 -14 -19 -8 0 -28 76 -35 138 -2 19 -6 34 -8 36 -1 1 -18 14 -36 29 -19 15 -37 27 -41 27 -5 0 -14 -47 -21 -105 -7 -58 -16 -105 -19 -105 -8 0 -57 92 -54 102 2 4 -2 8 -8 8 -5 0 -7 5 -4 10 3 6 1 10 -4 10 -6 0 -11 7 -11 15 0 20 -57 83 -91 101 -31 15 -41 16 -80 5z"/>
<path d="M2061 1917 c-41 -14 -61 -41 -44 -58 7 -7 19 -8 30 -4 48 21 63 9 63 -54 l0 -45 -33 32 c-49 48 -57 43 -57 -38 0 -49 4 -70 13 -70 6 0 22 -3 35 -6 20 -6 22 -3 23 37 l1 44 15 -38 c10 -23 24 -39 39 -43 25 -6 47 3 39 16 -3 5 -8 35 -10 67 -9 92 -15 111 -49 150 -22 26 -20 26 -65 10z"/>
<path d="M1794 1781 c1 -33 -2 -62 -6 -66 -16 -16 -28 10 -28 61 0 53 0 54 -30 54 l-30 0 0 -67 c0 -62 2 -69 24 -79 15 -7 30 -8 40 -2 10 5 16 5 16 0 0 -13 45 -21 61 -12 32 21 19 121 -20 149 l-28 20 1 -58z"/>
<path d="M690 1820 c0 -6 -16 -8 -42 -4 -33 6 -44 4 -55 -11 -14 -20 -18 -93 -5 -111 16 -24 81 -47 66 -23 -11 18 -13 109 -2 109 5 0 6 5 2 11 -4 8 0 8 15 0 17 -10 21 -21 21 -66 0 -54 0 -55 30 -55 l30 0 0 74 c0 58 -3 75 -16 80 -24 9 -44 7 -44 -4z"/>
<path d="M811 1816 c-18 -21 -19 -155 -1 -166 20 -13 53 -13 45 0 -3 6 5 14 19 20 27 10 27 40 0 40 -21 0 -19 66 2 74 15 6 15 8 -1 26 -21 23 -48 26 -64 6z"/>
<path d="M960 1823 c-28 -10 -40 -37 -40 -93 0 -56 0 -57 30 -58 20 0 30 4 30 14 0 8 5 14 11 14 5 0 8 -4 4 -9 -3 -6 2 -14 12 -19 16 -7 26 -8 49 -3 4 0 2 7 -4 14 -10 12 -12 17 -12 38 0 6 -7 8 -16 5 -18 -7 -38 11 -40 37 -1 10 5 17 17 17 22 0 23 8 5 33 -14 18 -21 19 -46 10z"/>
<path d="M1090 1775 c0 -42 -3 -55 -15 -55 -27 0 -16 -15 25 -33 22 -9 41 -17 43 -17 1 0 3 36 5 80 l2 80 -30 0 c-30 0 -30 0 -30 -55z"/>
<path d="M1222 1814 c-18 -12 -22 -25 -22 -67 0 -43 4 -55 23 -66 28 -18 58 -22 75 -9 6 6 12 7 12 4 0 -4 7 -1 15 8 8 8 15 19 15 24 0 14 -54 22 -62 9 -9 -14 -17 -6 -23 22 -4 23 20 41 57 41 22 0 22 0 3 19 -29 27 -67 33 -93 15z"/>
<path d="M1390 1775 c0 -42 -3 -55 -15 -55 -27 0 -16 -15 25 -33 22 -9 41 -17 43 -17 1 0 3 36 5 80 l2 80 -30 0 c-30 0 -30 0 -30 -55z"/>
<path d="M1515 1805 c-28 -27 -30 -37 -14 -67 23 -43 62 -67 108 -68 37 0 42 2 31 15 -10 12 -10 15 3 15 17 0 23 14 22 55 0 22 -8 35 -34 52 -44 30 -85 30 -116 -2z m95 -45 c0 -19 -7 -33 -19 -40 -29 -15 -31 -13 -31 29 0 29 4 41 18 44 26 5 32 -1 32 -33z"/>
<path d="M2347 1797 c-10 -65 18 -120 68 -129 26 -4 35 -17 35 -49 0 -19 6 -28 22 -32 12 -3 25 -4 29 -2 3 3 6 58 5 122 l-1 118 -27 3 c-22 3 -27 -1 -33 -29 l-7 -32 -30 32 c-37 40 -54 39 -61 -2z m83 -47 c13 -32 10 -42 -15 -46 -11 -2 -15 8 -15 37 0 47 13 50 30 9z"/>
<path d="M2570 1775 c0 -42 -3 -55 -15 -55 -27 0 -16 -15 25 -33 22 -9 41 -17 43 -17 1 0 3 36 5 80 l2 80 -30 0 c-30 0 -30 0 -30 -55z"/>
<path d="M2710 1822 c-23 -8 -30 -23 -30 -70 0 -52 17 -72 66 -78 44 -5 67 7 70 37 2 33 -10 46 -52 53 -45 9 -35 26 12 21 36 -3 36 -3 18 15 -21 20 -61 31 -84 22z m57 -87 c1 -5 -2 -17 -7 -25 -9 -13 -11 -13 -20 0 -15 23 -12 42 7 38 9 -2 18 -7 20 -13z"/>
<path d="M2871 1816 c-18 -21 -19 -155 -1 -166 20 -13 53 -13 45 0 -3 6 5 14 19 20 27 10 27 40 0 40 -21 0 -19 66 2 74 15 6 15 8 -1 26 -21 23 -48 26 -64 6z"/>
<path d="M3010 1822 c-23 -8 -30 -23 -30 -70 0 -52 17 -72 66 -78 44 -5 67 7 70 37 2 33 -10 46 -52 53 -45 9 -35 26 12 21 36 -3 36 -3 18 15 -21 20 -61 31 -84 22z m57 -87 c1 -5 -2 -17 -7 -25 -9 -13 -11 -13 -20 0 -15 23 -12 42 7 38 9 -2 18 -7 20 -13z"/>
<path d="M3171 1816 c-18 -21 -19 -155 -1 -166 20 -13 53 -13 45 0 -3 6 5 14 19 20 27 10 27 40 0 40 -21 0 -19 66 2 74 15 6 15 8 -1 26 -21 23 -48 26 -64 6z"/>
<path d="M3300 1775 c0 -42 -3 -55 -15 -55 -27 0 -16 -15 25 -33 22 -9 41 -17 43 -17 1 0 3 36 5 80 l2 80 -30 0 c-30 0 -30 0 -30 -55z"/>
<path d="M3432 1814 c-18 -12 -22 -25 -22 -67 0 -43 4 -55 23 -66 28 -18 58 -22 75 -9 6 6 12 7 12 4 0 -4 7 -1 15 8 8 8 15 19 15 24 0 14 -54 22 -62 9 -9 -14 -17 -6 -23 22 -4 23 20 41 57 41 22 0 22 0 3 19 -29 27 -67 33 -93 15z"/>
<path d="M3576 1796 c-4 -18 -2 -45 3 -58 14 -36 61 -71 86 -63 11 3 29 8 39 10 11 3 23 9 26 15 10 17 -1 114 -14 122 -23 16 -36 7 -36 -24 l0 -32 -33 32 c-43 42 -63 41 -71 -2z m95 -69 c-30 -30 -51 -6 -34 39 6 15 8 15 25 -6 13 -16 16 -26 9 -33z"/>
<path d="M1087 1633 c-13 -13 -7 -32 14 -44 17 -9 25 -8 37 5 13 12 13 18 2 30 -13 16 -42 21 -53 9z"/>
<path d="M1387 1633 c-13 -13 -7 -32 14 -44 17 -9 25 -8 37 5 13 12 13 18 2 30 -13 16 -42 21 -53 9z"/>
<path d="M1560 1634 c0 -19 24 -44 42 -44 21 0 21 0 -2 25 -22 23 -40 32 -40 19z"/>
<path d="M2567 1633 c-13 -13 -7 -32 14 -44 17 -9 25 -8 37 5 13 12 13 18 2 30 -13 16 -42 21 -53 9z"/>
<path d="M3032 1615 c6 -15 20 -25 31 -25 20 0 19 1 -3 25 -13 14 -27 25 -32 25 -4 0 -2 -11 4 -25z"/>
<path d="M3297 1633 c-13 -13 -7 -32 14 -44 17 -9 25 -8 37 5 13 12 13 18 2 30 -13 16 -42 21 -53 9z"/>
<path d="M2820 1420 c-15 -28 4 -60 36 -60 31 0 54 41 34 65 -18 21 -57 19 -70 -5z"/>
<path d="M3073 1323 c-19 -7 -16 -60 4 -72 26 -14 53 5 53 38 0 34 -23 48 -57 34z"/>
<path d="M2667 1212 c-23 -25 -21 -39 7 -57 22 -15 56 -12 56 5 0 5 2 14 5 22 13 34 -43 58 -68 30z"/>
<path d="M3310 1126 c-15 -20 -9 -56 12 -70 20 -12 58 16 58 44 0 36 -46 53 -70 26z"/>
<path d="M2904 1071 c24 -26 59 -28 54 -3 -2 11 -14 18 -38 20 -34 4 -34 4 -16 -17z"/>
<path d="M2518 989 c-43 -25 -3 -93 41 -70 29 16 33 39 11 61 -23 23 -28 24 -52 9z"/>
<path d="M3167 934 c-12 -12 -8 -51 8 -64 8 -6 23 -9 35 -5 17 5 20 13 18 38 -2 26 -8 33 -28 35 -14 2 -29 0 -33 -4z"/>
<path d="M2700 841 c-23 -44 3 -77 48 -60 26 10 29 41 6 63 -21 21 -41 20 -54 -3z"/>
<path d="M2962 728 c-17 -17 -15 -57 3 -64 8 -4 26 -3 40 0 41 11 28 76 -15 76 -9 0 -21 -5 -28 -12z"/>
<path d="M2554 626 c-3 -8 -4 -25 -2 -38 2 -19 9 -23 38 -23 26 0 36 5 38 18 8 39 -61 78 -74 43z"/>
</g>
<g id="layer107" fill="#8a6db6" stroke="none">
<path d="M2503 1725 c0 -44 2 -61 4 -37 2 23 2 59 0 80 -2 20 -4 1 -4 -43z"/>
<path d="M852 1740 c0 -19 2 -27 5 -17 2 9 2 25 0 35 -3 9 -5 1 -5 -18z"/>
<path d="M2912 1740 c0 -19 2 -27 5 -17 2 9 2 25 0 35 -3 9 -5 1 -5 -18z"/>
<path d="M3212 1740 c0 -19 2 -27 5 -17 2 9 2 25 0 35 -3 9 -5 1 -5 -18z"/>
<path d="M2080 1721 c0 -22 -5 -42 -12 -44 -8 -3 -6 -6 5 -6 14 -1 17 8 17 44 0 25 -2 45 -5 45 -3 0 -5 -18 -5 -39z"/>
<path d="M421 1635 c0 -12 -5 -26 -11 -33 -5 -7 -3 -6 6 2 9 7 14 22 11 32 -4 17 -5 17 -6 -1z"/>
</g>
<g id="layer108" fill="#fbfbfb" stroke="none">
<path d="M2834 1426 c-19 -15 -16 -45 8 -59 21 -14 48 7 48 38 0 27 -31 39 -56 21z"/>
<path d="M3064 1306 c-10 -26 1 -51 22 -54 27 -4 47 21 39 48 -7 24 -53 28 -61 6z"/>
<path d="M2661 1206 c-20 -24 4 -58 37 -54 23 2 27 8 27 33 0 25 -4 31 -26 33 -14 2 -31 -4 -38 -12z"/>
<path d="M3316 1124 c-27 -27 -12 -64 26 -64 15 0 38 27 38 44 0 8 -31 36 -40 36 -5 0 -16 -7 -24 -16z"/>
<path d="M2900 1082 c0 -14 23 -32 42 -32 27 0 22 19 -8 30 -31 12 -34 12 -34 2z"/>
<path d="M2509 974 c-17 -21 0 -49 31 -49 31 0 48 28 31 49 -8 9 -21 16 -31 16 -10 0 -23 -7 -31 -16z"/>
<path d="M3170 925 c-20 -24 -3 -57 28 -53 33 4 42 36 16 55 -23 17 -29 16 -44 -2z"/>
<path d="M2701 832 c-12 -23 4 -52 29 -52 25 0 41 30 29 53 -13 22 -46 22 -58 -1z"/>
<path d="M2961 716 c-15 -18 2 -56 24 -56 14 0 45 26 45 39 0 28 -50 40 -69 17z"/>
<path d="M2555 610 c-8 -27 12 -52 39 -48 16 2 21 10 21 33 0 25 -4 31 -27 33 -19 2 -28 -2 -33 -18z"/>
</g>


</svg>